# xmcd
#
# Track frame offsets:
#	150
#	10661
#	24169
#	38627
#	49751
#	61582
#	71005
#	80663
#	82968
#	93590
#	103769
#
# Disc length: 1652 seconds
#
# Revision: 1
# Processed by: cddbd v1.5.2PL0 Copyright (c) Steve Scherf et al.
# Submitted via: EasyCDDAExtractor 10.0.2.1
#
DISCID=7a06720b
DTITLE=Billie Jo Spears - The Voice Of Billie Jo Spears
DYEAR=1968
DGENRE=Country
TTITLE0=Home Lovin' Man
TTITLE1=Take Me To Your World
TTITLE2=Harper Valley P. T. A.
TTITLE3=Till Something Better Comes Along
TTITLE4=Talk, Talk
TTITLE5=Mollie Brown
TTITLE6=A Woman Of The World
TTITLE7=I Don't Wanna Play House
TTITLE8=He's Got More Love In His Little Finger
TTITLE9=Get Behind Me Satan And Push
TTITLE10=Ode To Billy Joe
EXTD=
EXTT0=
EXTT1=
EXTT2=
EXTT3=
EXTT4=
EXTT5=
EXTT6=
EXTT7=
EXTT8=
EXTT9=
EXTT10=
PLAYORDER=
